<?xml version="1.0" encoding="UTF-8"?>
<svg id="Layer_3" data-name="Layer 3" xmlns="http://www.w3.org/2000/svg" viewBox="0 0 2447.45 2249.55">
  <defs>
    <style>
      .cls-1 {
        fill: #fff;
      }
    </style>
  </defs>
  <polygon points="1799.64 784.16 1799.64 756.66 1365.62 756.66 1365.62 1013.8 1706.36 1013.8 1706.36 986.3 1400.13 986.3 1400.13 784.16 1799.64 784.16"/>
  <path d="m290.14,306.73v33.6h1682.37v1572.33H324.12V756.94h49.31v1108.7h1549.77V387.37H290.14v33.59h1597.84v1411.07H408.66V756.94h422.67c108.76,0,197.24,84.4,197.24,188.14s-88.48,188.14-197.24,188.14h-264.88l-2.22,2.38,36.53,31.22,55.09,47.04,39.34,33.59,568.06,485.04,35.22,30.06v-116.41l64.7,55.28,35.22,30.07v-611.7h312.53v-33.59h-347.75v570.1l-64.7-55.23v-924.75h507.65v-33.6h-542.87v928.28l-383.11-327.13c151.7-22.44,268.18-147.87,268.18-298.78,0-166.75-142.19-302.38-316.99-302.38h-457.89v80.63h-84.53v1222.93h1718.83V306.73H290.14Zm118.52,369.57h422.67c155.36,0,281.77,120.57,281.77,268.77s-119.26,261.82-268.5,268.44c-4.4.2-8.84.33-13.28.33h-39.17l39.35,33.59,431.75,368.63v71.29l-515.26-439.92-39.34-33.59-55.09-47.04h177.77c128.18,0,232.46-99.48,232.46-221.74s-104.29-221.75-232.46-221.75h-422.67v-47.03Z"/>
  <rect class="cls-1" width="569.89" height="2171.57"/>
  <rect class="cls-1" x="479.9" y="1778.01" width="1661.67" height="471.54"/>
  <rect class="cls-1" x="1877.62" y="143.97" width="347.93" height="1949.61"/>
  <rect class="cls-1" x="449.45" y="114.12" width="1998" height="396"/>
</svg>